<svg id="Layer_1" data-name="Layer 1" xmlns="http://www.w3.org/2000/svg" viewBox="0 0 203.13 148.54"><defs><style>.cls-1{fill:#d4dbe0;fill-rule:evenodd}</style></defs><title>quote</title><path id="_" class="cls-1" d="M138.26 39q-23.07 23.8-28.89 53.82-5 25.8 5.58 41.13t29.26 15.34q16 0 29.44-11.34T190 111.71q2.76-14.22-5-24.57t-20.5-10.33a34.85 34.85 0 0 0-19 5.11 8.52 8.52 0 0 1-3.64 1.56 1.93 1.93 0 0 1-1.74-1.34c-.63-1.33-.67-3.41-.13-6.22q3.8-19.58 20.43-37.69t41.4-26.57l2.12-10.9Q161.32 15.22 138.26 39zM31.31 39Q8.24 62.8 2.42 92.82-2.59 118.61 8 134t29.26 15.34q16 0 29.44-11.34T83 111.72q2.76-14.23-5-24.58T57.55 76.81a34.85 34.85 0 0 0-19 5.11 8.53 8.53 0 0 1-3.63 1.56 1.93 1.93 0 0 1-1.75-1.34c-.63-1.33-.67-3.41-.12-6.22q3.8-19.58 20.43-37.69t41.4-26.57L97 .76Q54.38 15.22 31.31 39z" transform="translate(-.81 -.76)"/></svg>